<?xml version="1.0" encoding="utf-8"?>
<!-- Generator: Adobe Illustrator 26.2.1, SVG Export Plug-In . SVG Version: 6.00 Build 0)  -->
<svg version="1.1" id="Layer_1" xmlns="http://www.w3.org/2000/svg" xmlns:xlink="http://www.w3.org/1999/xlink" x="0px" y="0px"
	 viewBox="0 0 36 36" style="enable-background:new 0 0 36 36;" xml:space="preserve">
<style type="text/css">
	.st0{fill:#FF6600;}
	.st1{fill:#009900;}
</style>
<path class="st0" d="M15.7,9.4c-3.2,1.1-5.1,4.2-4.8,7.5l4.5,0c0.5,0,0.9,0.4,0.9,0.9c0,0.2-0.1,0.5-0.3,0.7
	c-0.2,0.2-0.4,0.3-0.6,0.3l-4.1,0l5.5,15.9c0.1,0.4,0.4,0.7,0.8,0.8c0.7,0.2,1.4-0.1,1.6-0.8l2.8-8.1l-4,0c-0.5,0-0.9-0.4-0.9-0.9
	c0-0.5,0.4-0.9,0.9-0.9l4.6,0l2.1-6.2c0.5-1.5,0.5-3.1,0-4.7C23.5,10.1,19.4,8.1,15.7,9.4z"/>
<path class="st1" d="M18,4.3c-0.9-2.5-3.2-4-6.2-3.7c-0.3,3.7,2.2,6.5,5.9,6.5h0.7c3.7,0,6.3-2.8,5.9-6.5C21.2,0.2,18.8,1.8,18,4.3z
	"/>
</svg>
