<?xml version="1.0" encoding="utf-8"?>
<!-- Generator: Adobe Illustrator 26.2.1, SVG Export Plug-In . SVG Version: 6.00 Build 0)  -->
<svg version="1.1" id="Layer_1" xmlns="http://www.w3.org/2000/svg" xmlns:xlink="http://www.w3.org/1999/xlink" x="0px" y="0px"
	 viewBox="0 0 36 36" style="enable-background:new 0 0 36 36;" xml:space="preserve">
<style type="text/css">
	.st0{fill:#FF6600;}
	.st1{fill:#009900;}
</style>
<g>
	<path class="st0" d="M21,11c-3.7-1.8-8.1-0.7-10.6,2.3l3.9,3.9c0.4,0.4,0.4,1.1,0,1.6c-0.2,0.2-0.5,0.3-0.8,0.3
		c-0.3,0-0.6-0.1-0.8-0.3l-3.5-3.5l-9,18.5c-0.2,0.4-0.2,0.9,0,1.4c0.4,0.8,1.3,1.1,2.1,0.7l9.4-4.6l-3.5-3.5
		c-0.4-0.4-0.4-1.2,0-1.6c0.4-0.4,1.2-0.4,1.6,0l4,4l7.2-3.5c1.7-0.8,3.1-2.2,4-4C27.1,18.4,25.3,13.1,21,11z"/>
	<path class="st1" d="M27.4,8.6c1.4-2.9,0.7-6.3-2.2-8.6c-3.5,2.9-3.7,7.6-0.6,10.7l0.6,0.6c3.2,3.1,7.8,3,10.7-0.6
		C33.7,7.9,30.2,7.2,27.4,8.6z"/>
</g>
</svg>
